HIERARCHY
ROOT mixamorig:Hips
{
	OFFSET -0.000419 0.014164 2.091508
	CHANNELS 6 Xposition Yposition Zposition Xrotation Yrotation Zrotation
	JOINT mixamorig:Spine
	{
		OFFSET -0.001948 0.038898 0.198048
		CHANNELS 6 Xposition Yposition Zposition Xrotation Yrotation Zrotation
		JOINT mixamorig:Spine1
		{
			OFFSET -0.002704 0.023603 0.235004
			CHANNELS 3 Xrotation Yrotation Zrotation
			JOINT mixamorig:Spine2
			{
				OFFSET -0.001091 0.011954 0.278074
				CHANNELS 3 Xrotation Yrotation Zrotation
				JOINT mixamorig:Neck
				{
					OFFSET 0.005730 -0.037617 0.310620
					CHANNELS 6 Xposition Yposition Zposition Xrotation Yrotation Zrotation
					JOINT mixamorig:Head
					{
						OFFSET 0.010419 -0.065134 0.222311
						CHANNELS 6 Xposition Yposition Zposition Xrotation Yrotation Zrotation
						End Site
						{
							OFFSET 0.010419 -0.065135 0.222311
						}
					}
				}
				JOINT mixamorig:LeftShoulder
				{
					OFFSET 0.129541 -0.026782 0.188949
					CHANNELS 6 Xposition Yposition Zposition Xrotation Yrotation Zrotation
					JOINT mixamorig:LeftArm
					{
						OFFSET 0.262609 0.040542 0.007741
						CHANNELS 3 Xrotation Yrotation Zrotation
						JOINT mixamorig:LeftForeArm
						{
							OFFSET 0.551278 0.000000 -0.000000
							CHANNELS 6 Xposition Yposition Zposition Xrotation Yrotation Zrotation
							JOINT mixamorig:LeftHand
							{
								OFFSET 0.527734 -0.000000 -0.000000
								CHANNELS 3 Xrotation Yrotation Zrotation
								End Site
								{
									OFFSET 0.527734 -0.000000 0.000000
								}
							}
						}
					}
				}
				JOINT mixamorig:RightShoulder
				{
					OFFSET -0.126373 -0.021809 0.192154
					CHANNELS 6 Xposition Yposition Zposition Xrotation Yrotation Zrotation
					JOINT mixamorig:RightArm
					{
						OFFSET -0.263355 0.054230 0.004609
						CHANNELS 3 Xrotation Yrotation Zrotation
						JOINT mixamorig:RightForeArm
						{
							OFFSET -0.558427 0.000000 0.000000
							CHANNELS 6 Xposition Yposition Zposition Xrotation Yrotation Zrotation
							JOINT mixamorig:RightHand
							{
								OFFSET -0.503137 0.000000 -0.000000
								CHANNELS 6 Xposition Yposition Zposition Xrotation Yrotation Zrotation
								End Site
								{
									OFFSET -0.503137 -0.000000 0.000000
								}
							}
						}
					}
				}
			}
		}
	}
	JOINT mixamorig:LeftUpLeg
	{
		OFFSET 0.185244 -0.026620 -0.138385
		CHANNELS 6 Xposition Yposition Zposition Xrotation Yrotation Zrotation
		JOINT mixamorig:LeftLeg
		{
			OFFSET -0.004065 0.015108 -0.852313
			CHANNELS 3 Xrotation Yrotation Zrotation
			JOINT mixamorig:LeftFoot
			{
				OFFSET 0.004508 0.051445 -0.854151
				CHANNELS 3 Xrotation Yrotation Zrotation
				JOINT mixamorig:LeftToeBase
				{
					OFFSET 0.026925 -0.242907 -0.213948
					CHANNELS 3 Xrotation Yrotation Zrotation
					End Site
					{
						OFFSET -0.005614 -0.324736 0.004268
					}
				}
			}
		}
	}
	JOINT mixamorig:RightUpLeg
	{
		OFFSET -0.184403 -0.001603 -0.144117
		CHANNELS 6 Xposition Yposition Zposition Xrotation Yrotation Zrotation
		JOINT mixamorig:RightLeg
		{
			OFFSET 0.005493 -0.010027 -0.848120
			CHANNELS 3 Xrotation Yrotation Zrotation
			JOINT mixamorig:RightFoot
			{
				OFFSET -0.005940 0.051576 -0.852616
				CHANNELS 3 Xrotation Yrotation Zrotation
				JOINT mixamorig:RightToeBase
				{
					OFFSET -0.031537 -0.248182 -0.214912
					CHANNELS 6 Xposition Yposition Zposition Xrotation Yrotation Zrotation
					End Site
					{
						OFFSET -0.045720 -0.326606 0.003764
					}
				}
			}
		}
	}
}
MOTION
Frames: 7
Frame Time: 0.033333
-1.430880 0.151616 1.868895 19.495902 3.709523 20.005404 -0.001948 0.038898 0.198048 19.479276 -8.595662 -11.896950 -1.113109 -1.913241 -1.756656 -1.063501 -2.048492 -1.662555 0.005730 -0.037617 0.310621 -9.400444 1.085097 1.093997 0.010419 -0.065134 0.222311 -25.958370 5.744023 5.813685 0.129541 -0.026782 0.188949 -0.004349 -10.348008 -3.024156 -32.415169 17.443239 -17.004185 0.551278 0.000000 -0.000000 -0.000049 0.000022 -78.673705 14.166920 -25.533878 -22.744902 -0.126373 -0.021809 0.192154 0.260070 0.671593 -0.281217 -28.576052 -24.354266 -43.018410 -0.558427 0.000000 0.000000 0.000001 -0.000006 56.590733 -0.503137 0.000000 -0.000000 -5.858275 12.377211 2.362306 0.185244 -0.026620 -0.138385 -13.883067 0.562821 9.067276 52.214303 -7.782760 -4.326132 4.950874 12.440087 -5.254548 -16.531076 0.000002 -0.000021 -0.184403 -0.001603 -0.144117 -62.758736 18.228923 -2.064930 47.248332 -6.240874 2.243815 5.109663 -3.170462 -6.200126 -0.031537 -0.248182 -0.214912 -11.462826 0.000027 0.000016 
-1.440665 0.180656 1.882286 18.215363 5.570251 22.585547 -0.001948 0.038897 0.198048 17.591279 -9.694510 -13.120138 -1.738660 -2.786634 -2.230095 -1.670410 -2.937998 -2.121360 0.005730 -0.037617 0.310620 -8.766596 0.822230 1.185959 0.010419 -0.065135 0.222311 -20.927742 5.251160 6.164046 0.129541 -0.026782 0.188948 0.074602 -8.877265 -3.789818 -29.247567 19.063814 -19.479657 0.551277 0.000000 -0.000000 -0.000047 0.000022 -85.902709 15.956881 -23.780758 -22.881677 -0.126373 -0.021809 0.192154 0.277371 0.241879 -0.227958 -28.787103 -25.927857 -45.637152 -0.558427 0.000000 -0.000000 -0.000019 -0.000003 58.712074 -0.503137 0.000000 -0.000000 -4.220741 12.454924 4.788712 0.185244 -0.026620 -0.138385 -9.831392 0.294114 10.123987 48.174373 -6.854301 -6.935031 4.727182 10.472171 -3.956780 -12.953315 -0.000002 -0.000032 -0.184403 -0.001603 -0.144117 -59.362684 15.805246 -1.290563 43.126999 -4.099047 -2.555110 3.997847 -5.456851 -3.184703 -0.031537 -0.248182 -0.214912 -9.720686 0.000020 0.000011 
-1.448556 0.211645 1.890726 16.775009 7.200791 25.112615 -0.001948 0.038898 0.198048 15.529178 -10.605980 -14.712139 -1.513208 -3.443499 -2.512435 -1.424100 -3.581350 -2.399993 0.005730 -0.037617 0.310621 -8.292405 0.652094 1.323981 0.010419 -0.065135 0.222311 -17.529358 4.933020 6.801683 0.129541 -0.026781 0.188949 0.104570 -8.140068 -3.886373 -26.009343 20.156322 -22.887417 0.551278 0.000000 -0.000000 -0.000040 0.000036 -92.746155 18.105240 -22.573256 -22.699157 -0.126373 -0.021809 0.192154 0.294474 -0.171438 -0.172059 -29.128807 -27.488545 -47.959307 -0.558428 0.000000 0.000000 -0.000017 0.000001 60.340528 -0.503137 0.000000 -0.000000 -2.781380 12.618050 6.733364 0.185244 -0.026620 -0.138386 -5.999675 -0.181763 10.934551 44.122619 -6.466809 -8.632648 3.885593 9.096215 -3.104091 -9.952406 0.000004 -0.000023 -0.184403 -0.001603 -0.144117 -56.467885 14.113002 -1.055281 39.789817 -2.787643 -5.723804 3.108080 -5.722828 -1.931900 -0.031537 -0.248182 -0.214912 -8.137741 0.000018 0.000010 
-1.456153 0.243932 1.892677 15.224135 8.508606 27.520463 -0.001948 0.038898 0.198048 13.442804 -11.184997 -16.638114 -0.355156 -3.864422 -2.590441 -0.243150 -3.954680 -2.486942 0.005730 -0.037617 0.310621 -8.042088 0.594622 1.498031 0.010419 -0.065134 0.222311 -16.042919 4.793559 7.640075 0.129541 -0.026782 0.188949 0.088037 -8.103838 -3.096307 -22.795551 20.404791 -27.591852 0.551278 0.000000 -0.000000 -0.000054 0.000030 -98.910353 20.932020 -22.272338 -21.967676 -0.126373 -0.021809 0.192154 0.310902 -0.564962 -0.116343 -29.609509 -29.062257 -49.963121 -0.558427 0.000000 -0.000000 -0.000017 0.000009 61.245753 -0.503137 0.000000 -0.000000 -1.707625 12.767888 7.838955 0.185244 -0.026620 -0.138385 -2.884117 -0.839290 11.526840 40.533611 -6.647159 -8.961133 2.314735 8.146569 -2.932701 -10.852074 -2.217423 -0.079006 -0.184403 -0.001603 -0.144117 -54.480154 13.407030 -1.275079 37.607425 -2.431119 -6.797345 3.250032 -5.527951 -2.884690 -0.031537 -0.248182 -0.214912 -7.194406 0.000018 0.000004 
-1.465021 0.277673 1.887709 13.689039 9.317977 29.673972 -0.001948 0.038898 0.198048 12.168574 -11.208059 -18.342603 0.985764 -4.120447 -2.616652 1.118044 -4.151808 -2.525136 0.005731 -0.037617 0.310621 -7.972432 0.629624 1.613694 0.010419 -0.065134 0.222311 -15.650183 4.671016 8.126418 0.129541 -0.026781 0.188948 0.068096 -8.019909 -1.691690 -19.611783 19.550278 -33.941867 0.551278 0.000000 -0.000000 -0.000043 0.000032 -104.008748 23.875543 -22.843636 -21.083158 -0.126373 -0.021809 0.192155 0.325808 -0.938605 -0.068141 -30.185656 -30.649572 -51.759266 -0.558427 0.000000 0.000000 -0.000005 -0.000007 61.236102 -0.503138 0.000000 -0.000000 -1.102631 12.795459 7.927362 0.185244 -0.026620 -0.138385 -0.574984 -1.582842 12.084147 37.497547 -6.816661 -8.638560 0.179783 6.945209 -2.573629 -15.967329 -5.590621 -0.487678 -0.184403 -0.001603 -0.144117 -53.546094 13.411479 -1.565688 36.788017 -2.471086 -6.698871 4.292672 -5.644258 -5.375969 -0.031537 -0.248182 -0.214912 -6.501037 0.000018 0.000006 
-1.475101 0.316402 1.874462 12.299442 9.511772 31.502158 -0.001948 0.038898 0.198048 12.380035 -10.768440 -19.177523 1.363209 -4.237310 -2.738188 1.504445 -4.251463 -2.648790 0.005731 -0.037617 0.310621 -7.951018 0.680666 1.595424 0.010419 -0.065134 0.222311 -15.259881 4.428259 7.885461 0.129541 -0.026782 0.188948 0.072891 -7.575769 -0.676802 -16.495849 18.188239 -41.331210 0.551277 0.000000 -0.000000 -0.000046 0.000049 -107.557468 25.406542 -23.849678 -21.119169 -0.126373 -0.021809 0.192154 0.339034 -1.292618 -0.030019 -30.850380 -32.234484 -53.558402 -0.558427 0.000000 0.000000 -0.000008 0.000001 60.882524 -0.503137 0.000000 -0.000000 -0.849811 12.601903 7.055654 0.185244 -0.026620 -0.138385 0.863433 -1.980870 12.416427 35.579015 -6.564692 -8.127407 -2.551997 4.791860 -1.262529 -24.757115 -2.969195 -0.453537 -0.184403 -0.001603 -0.144117 -53.644856 13.769695 -1.447474 37.245162 -2.145633 -7.108443 5.667691 -6.312726 -7.682048 -0.031537 -0.248182 -0.214912 -5.665148 0.000010 0.000009 
-1.483890 0.364009 1.853406 10.856081 9.102078 33.043216 -0.001948 0.038898 0.198048 13.977104 -10.304939 -19.298414 1.148410 -4.059391 -2.833951 1.283515 -4.090680 -2.738860 0.005730 -0.037617 0.310620 -7.939542 0.722087 1.475115 0.010419 -0.065134 0.222310 -15.210106 4.159731 7.166158 0.129541 -0.026781 0.188948 0.078248 -7.376466 -0.461448 -13.610990 17.228980 -47.697123 0.551278 0.000000 -0.000000 -0.000046 0.000043 -110.099945 23.405359 -24.440903 -23.057482 -0.126373 -0.021809 0.192154 0.351210 -1.612177 0.006355 -31.664655 -33.851698 -55.452803 -0.558428 0.000000 0.000000 -0.000018 0.000010 60.645011 -0.503137 -0.000000 -0.000000 -0.997102 12.036474 5.380436 0.185244 -0.026620 -0.138386 1.430092 -1.598211 12.113013 35.728593 -6.329104 -6.211564 -5.998647 1.869022 -0.313057 -31.578492 0.813408 0.131266 -0.184403 -0.001603 -0.144117 -54.136363 14.436365 -0.933871 38.222671 -1.410421 -7.737150 7.178786 -7.541092 -8.916121 -0.031537 -0.248182 -0.214912 -5.273026 0.000016 0.000004 
